<?xml version="1.0" standalone="no"?>
<!DOCTYPE svg PUBLIC "-//W3C//DTD SVG 20010904//EN"
 "http://www.w3.org/TR/2001/REC-SVG-20010904/DTD/svg10.dtd">
<svg version="1.0" xmlns="http://www.w3.org/2000/svg"
 width="364.000000pt" height="364.000000pt" viewBox="0 0 364.000000 364.000000"
 preserveAspectRatio="xMidYMid meet">
<metadata>
Created by potrace 1.14, written by Peter Selinger 2001-2017
</metadata>
<g transform="translate(0.000000,364.000000) scale(0.100000,-0.100000)"
fill="#000000" stroke="none">
<path d="M10 3633 c-6 -82 3 -3610 8 -3615 5 -5 817 -8 1807 -8 1435 0 1800 2
1807 12 9 16 11 2837 1 3296 l-6 322 -1809 0 c-994 0 -1808 -3 -1808 -7z
m1560 -126 c0 -118 25 -235 65 -303 31 -53 27 -56 -81 -62 -101 -5 -258 26
-357 71 -60 27 -70 29 -83 15 -21 -21 -11 -35 62 -98 101 -85 135 -138 144
-218 6 -60 4 -75 -21 -140 -34 -86 -65 -135 -110 -179 l-34 -32 -1 122 c-1
127 -15 190 -53 232 -10 11 -34 48 -54 81 -51 85 -102 127 -221 186 -87 42
-114 50 -179 55 -42 3 -74 10 -71 14 3 5 -2 9 -11 9 -9 0 -14 -4 -11 -9 4 -5
-17 -14 -45 -20 -89 -19 -210 -82 -253 -132 -75 -88 -122 -215 -132 -362 -8
-122 11 -208 77 -350 28 -61 60 -135 70 -165 47 -138 9 -276 -147 -534 -31
-51 -63 -106 -70 -123 -11 -25 -13 140 -14 1008 l0 1037 765 0 765 0 0 -103z
m210 91 c-1 -7 -7 -40 -15 -73 -23 -93 -18 -247 11 -337 4 -15 -1 -18 -35 -18
-39 0 -41 2 -53 43 -6 23 -12 96 -12 162 0 109 2 125 26 178 23 48 31 57 52
57 15 0 26 -6 26 -12z m303 -50 c-33 -35 -77 -87 -96 -116 -42 -62 -97 -199
-97 -242 0 -31 -11 -36 -57 -24 -30 8 -40 75 -25 178 13 91 45 164 97 224 l37
42 101 0 101 0 -61 -62z m245 9 c-9 -7 -47 -32 -84 -57 -147 -99 -209 -181
-235 -307 -9 -42 -18 -63 -27 -63 -12 0 -14 13 -9 73 5 74 33 160 67 207 20
27 133 92 239 136 64 26 73 29 49 11z m7 -110 c-16 -12 -68 -54 -115 -93 -82
-69 -101 -94 -144 -194 -13 -29 -15 -31 -16 -12 0 37 58 166 88 195 24 23 199
127 212 127 3 -1 -8 -11 -25 -23z m15 -71 c0 -2 -31 -26 -69 -55 -100 -74
-145 -129 -165 -202 -22 -78 -30 -72 -11 9 19 79 34 108 82 154 46 45 163 112
163 94z m-1580 -216 c83 -33 173 -79 199 -103 13 -12 39 -46 58 -75 30 -47 34
-58 28 -95 -15 -90 -44 -162 -77 -193 -60 -55 -65 -57 -60 -25 14 94 -71 371
-92 299 -2 -7 -9 -32 -15 -55 -6 -22 -20 -52 -30 -65 l-20 -23 6 76 c5 68 3
83 -20 133 -14 31 -31 56 -36 56 -14 0 -14 -1 9 -51 20 -44 24 -113 10 -159
-6 -23 -8 -22 -15 15 -9 46 -45 117 -81 159 -35 40 -42 24 -10 -24 53 -80 67
-202 30 -270 -13 -24 -13 -23 -14 25 -1 84 -46 163 -133 231 -53 42 -71 32
-23 -12 70 -64 114 -208 86 -279 l-12 -30 -13 42 c-30 99 -129 233 -172 233
-20 0 -17 -5 40 -62 56 -56 87 -122 87 -185 0 -38 -12 -41 -66 -16 -34 17 -37
17 -49 0 -16 -22 -7 -64 35 -172 44 -116 72 -153 124 -167 39 -10 45 -16 51
-45 7 -38 30 -53 49 -32 7 8 21 37 31 64 21 58 113 155 169 179 20 8 36 19 36
24 0 4 27 30 60 58 80 65 106 105 128 194 18 72 18 73 30 44 22 -52 29 -129
21 -240 -11 -170 -71 -315 -171 -415 l-50 -50 -21 27 c-11 15 -43 37 -71 50
-110 51 -283 17 -409 -80 -27 -21 -50 -36 -51 -34 -1 2 -7 28 -13 59 -6 30
-41 121 -77 200 -79 175 -90 222 -83 354 8 155 62 287 149 360 36 31 119 70
193 91 66 19 186 11 255 -16z m1062 -30 c132 -19 156 -34 266 -155 120 -134
186 -186 291 -230 115 -47 168 -80 233 -145 41 -42 59 -68 67 -101 24 -95 32
-117 54 -149 36 -54 97 -94 198 -129 52 -19 156 -61 232 -94 107 -46 151 -71
193 -109 44 -41 54 -56 54 -83 0 -18 -6 -38 -14 -44 -18 -15 -91 -6 -161 20
-78 29 -164 20 -207 -23 -29 -29 -65 -16 -118 43 -51 56 -81 63 -106 24 -13
-20 -14 -30 -4 -59 19 -57 90 -113 234 -181 145 -69 181 -99 173 -141 -2 -14
2 -38 9 -53 18 -33 18 -73 0 -115 -16 -39 -71 -74 -156 -101 -70 -22 -156 -66
-295 -149 -124 -75 -136 -77 -276 -50 -133 25 -254 6 -247 -40 2 -17 9 -20 38
-18 19 2 82 2 140 1 269 -5 238 -10 326 45 200 125 242 148 330 182 88 34 96
35 118 21 12 -8 35 -40 51 -70 50 -100 36 -253 -39 -412 -49 -105 -90 -155
-165 -203 -40 -25 -67 -35 -110 -39 -78 -6 -121 21 -188 117 -112 160 -126
170 -246 185 -42 6 -51 11 -69 41 -23 40 -42 40 -46 1 -2 -19 5 -36 25 -56
l29 -28 -96 -23 c-52 -12 -120 -35 -151 -51 -116 -58 -264 -196 -307 -286 -9
-18 -18 -33 -22 -33 -3 0 -40 21 -83 47 -161 101 -331 262 -450 428 -52 73
-113 207 -138 300 -23 90 -21 190 7 384 26 170 2 195 -76 78 l-45 -68 -13 53
c-8 32 -14 117 -15 213 -1 158 -1 162 36 285 21 69 68 193 103 275 148 338
154 356 154 442 0 94 -22 148 -83 212 -34 35 -38 42 -19 37 12 -3 30 -8 40
-11 9 -2 56 -11 103 -19 76 -13 92 -13 135 0 51 16 185 42 219 43 11 0 50 -4
87 -9z m-1071 -935 c24 -9 52 -23 62 -33 29 -25 97 -129 97 -146 0 -8 -28 -48
-63 -88 -78 -90 -114 -142 -160 -234 -47 -94 -75 -178 -78 -238 -4 -65 15 -70
31 -9 18 66 94 217 140 279 21 28 56 65 77 81 l38 31 -86 -172 c-77 -153 -91
-190 -124 -327 -32 -128 -39 -176 -43 -288 -3 -78 1 -165 8 -210 11 -75 83
-304 103 -329 25 -32 26 12 2 109 -22 93 -25 125 -25 304 -1 230 9 288 80 440
40 87 99 189 106 183 2 -2 -11 -43 -27 -92 -34 -98 -52 -267 -30 -280 7 -5 11
-44 11 -109 0 -131 13 -207 56 -336 91 -274 250 -510 427 -634 l60 -42 -359
-6 c-197 -4 -509 -7 -691 -8 l-333 -1 0 708 c0 579 3 717 14 755 8 26 49 106
91 177 83 141 126 231 144 298 7 23 17 42 22 42 6 0 38 25 72 55 67 61 132 97
217 119 72 19 108 19 161 1z m2444 -339 c21 -22 45 -81 45 -115 0 -8 -17 5
-37 29 -20 23 -59 53 -87 66 -48 22 -49 23 -26 33 43 17 80 12 105 -13z m118
2 l48 -10 -6 -36 c-8 -44 -65 -165 -81 -170 -8 -2 -11 25 -10 85 1 68 -3 96
-18 122 -18 33 -18 34 0 27 11 -4 40 -12 67 -18z m-2147 -262 c-31 -184 -38
-288 -22 -363 35 -167 113 -310 269 -493 161 -188 477 -401 477 -322 0 59 163
236 266 290 22 12 22 11 7 -36 -10 -33 -13 -76 -10 -144 3 -85 8 -105 40 -171
51 -109 156 -243 226 -290 14 -9 23 -18 20 -19 -2 -2 -222 -1 -489 2 l-485 5
-86 62 c-192 139 -323 323 -413 581 -50 144 -66 233 -66 369 0 213 34 352 104
430 29 32 53 49 66 49 16 -1 25 8 34 36 19 53 69 135 74 120 2 -7 -3 -54 -12
-106z m2201 -53 c-6 -111 -30 -206 -65 -250 l-17 -22 -38 35 -38 35 21 26 c16
20 20 40 20 99 l0 72 58 56 c31 31 59 56 61 56 2 0 1 -48 -2 -107z"/>
<path d="M1876 2435 c-33 -14 -72 -25 -87 -25 -15 0 -31 -4 -34 -10 -3 -5 -17
-10 -31 -10 -15 0 -24 -6 -24 -15 0 -8 7 -15 16 -15 16 0 120 -87 216 -182
100 -98 176 -129 261 -105 24 7 27 5 27 -19 0 -45 -30 -94 -71 -114 -55 -29
-146 -121 -167 -172 -11 -23 -25 -67 -32 -96 -15 -64 -84 -145 -186 -217 -35
-25 -64 -48 -64 -51 0 -14 108 64 169 120 59 56 78 90 106 185 15 51 31 77 74
124 30 32 79 73 108 89 69 39 99 95 86 160 -6 29 -7 30 -47 22 -95 -18 -155 3
-241 85 -27 26 -81 71 -118 101 -37 29 -67 54 -65 55 2 1 66 -7 143 -19 144
-23 201 -42 288 -98 43 -28 59 -32 129 -34 72 -2 84 -6 117 -31 20 -16 44 -45
53 -64 19 -37 24 -114 8 -124 -13 -8 -13 -25 0 -25 5 0 17 14 25 31 14 26 14
39 5 87 -10 49 -20 64 -65 109 -45 44 -66 56 -136 77 -75 23 -88 31 -158 100
-61 59 -85 76 -117 81 -21 3 -49 10 -62 16 -35 14 -61 10 -126 -16z"/>
<path d="M2711 1962 c-39 -110 -103 -173 -229 -229 -143 -63 -188 -125 -180
-250 13 -217 188 -345 408 -297 83 17 109 28 97 40 -4 4 -43 -1 -86 -11 -124
-28 -201 -14 -290 53 -69 52 -120 220 -92 305 16 48 74 98 170 147 128 64 182
122 222 238 22 64 22 62 10 62 -4 0 -18 -26 -30 -58z"/>
<path d="M2590 1664 c-11 -12 -10 -18 3 -32 15 -15 19 -15 32 -1 17 17 11 49
-10 49 -7 0 -18 -7 -25 -16z"/>
<path d="M2895 1670 c-3 -5 -1 -10 4 -10 6 0 11 5 11 10 0 6 -2 10 -4 10 -3 0
-8 -4 -11 -10z"/>
<path d="M2470 1656 c-27 -33 18 -72 48 -42 13 13 14 20 6 34 -15 23 -38 26
-54 8z"/>
<path d="M2690 1660 c0 -5 5 -10 10 -10 6 0 10 5 10 10 0 6 -4 10 -10 10 -5 0
-10 -4 -10 -10z"/>
<path d="M2780 1660 c0 -5 5 -10 10 -10 6 0 10 5 10 10 0 6 -4 10 -10 10 -5 0
-10 -4 -10 -10z"/>
<path d="M2487 1564 c-15 -16 -7 -53 14 -59 30 -10 58 19 43 43 -12 18 -45 28
-57 16z"/>
<path d="M2584 1546 c-8 -21 3 -36 27 -36 15 0 20 6 17 22 -4 27 -35 37 -44
14z"/>
<path d="M2690 1540 c0 -5 5 -10 10 -10 6 0 10 5 10 10 0 6 -4 10 -10 10 -5 0
-10 -4 -10 -10z"/>
<path d="M2775 1540 c-3 -5 -1 -10 4 -10 6 0 11 5 11 10 0 6 -2 10 -4 10 -3 0
-8 -4 -11 -10z"/>
<path d="M2622 1461 c-20 -12 -10 -46 13 -46 14 0 20 7 20 24 0 27 -13 35 -33
22z"/>
<path d="M2512 1451 c-20 -12 -11 -55 12 -59 27 -6 48 25 35 49 -10 20 -26 24
-47 10z"/>
<path d="M2710 1451 c0 -6 5 -13 10 -16 6 -3 10 1 10 9 0 9 -4 16 -10 16 -5 0
-10 -4 -10 -9z"/>
</g>
</svg>
